# 
# 
mtllib screwdriver.mtl
o screwdriver
v -0.000127 0.425514 0.023378
v 0.011897 0.435478 0.006229
v 0.000167 0.435485 0.013174
v 0.020585 0.425487 0.011110
v -0.020303 0.425494 0.011574
v -0.012093 0.435479 0.006706
v -0.021184 0.425475 -0.012179
v -0.012099 0.435461 -0.007537
v -0.000468 0.425462 -0.024446
v -0.000369 0.435454 -0.014482
v 0.020714 0.425463 -0.012708
v 0.011736 0.435466 -0.007403
v 0.000163 0.411437 0.027446
v 0.024006 0.411421 0.013321
v -0.023433 0.411428 0.013444
v -0.024126 0.411388 -0.013585
v -0.000296 0.411374 -0.027695
v 0.023456 0.411392 -0.014319
v 0.000044 0.401887 0.020131
v 0.018030 0.401873 0.009485
v -0.017561 0.401884 0.009981
v -0.017996 0.401852 -0.010342
v -0.000025 0.401841 -0.020987
v 0.017598 0.401855 -0.010837
v 0.000018 0.439556 -0.000469
v 0.000421 0.291547 0.022669
v 0.019964 0.402340 0.010985
v 0.000428 0.402353 0.022544
v 0.019955 0.291534 0.011095
v -0.019140 0.291543 0.011022
v -0.019135 0.402334 0.010911
v -0.019705 0.291518 -0.011323
v -0.019700 0.402310 -0.011448
v -0.000170 0.291505 -0.022897
v -0.000165 0.402296 -0.023007
v 0.019548 0.291519 -0.011876
v 0.019552 0.402310 -0.012001
v -0.000115 0.284743 0.020876
v 0.018254 0.284726 0.010009
v -0.018350 0.284728 0.010570
v -0.018857 0.284701 -0.010770
v -0.000488 0.284684 -0.021637
v 0.018373 0.284697 -0.011177
v 0.019115 0.405057 0.010427
v 0.000363 0.405076 0.021529
v -0.018344 0.405057 0.010442
v -0.018852 0.405031 -0.010899
v -0.000097 0.405026 -0.022000
v 0.018382 0.405041 -0.011305
v 0.000312 0.272012 0.015371
v 0.000283 0.284737 0.020654
v 0.013592 0.272006 0.007498
v -0.013658 0.272004 0.007811
v -0.013810 0.271997 -0.008468
v -0.018460 0.284695 -0.011007
v -0.000516 0.271988 -0.016342
v 0.013681 0.271985 -0.008392
v -0.013181 0.261549 -0.008297
v -0.012888 0.261568 0.007357
v -0.018851 0.247006 -0.010730
v -0.018358 0.247036 0.010611
v 0.000472 0.261575 0.014760
v -0.000109 0.247048 0.020916
v 0.013365 0.261558 0.007123
v 0.018246 0.247034 0.010050
v -0.000494 0.247007 -0.021610
v -0.000287 0.261531 -0.015935
v 0.018368 0.247020 -0.011135
v 0.013301 0.261541 -0.008140
v 0.000013 0.240675 -0.000263
v 0.018246 0.240675 0.010057
v 0.000275 0.240686 0.020702
v -0.018358 0.240677 0.010618
v -0.018236 0.240662 -0.010568
v -0.000265 0.240651 -0.021213
v 0.018368 0.240661 -0.011129
v -0.003700 0.068108 -0.006325
v -0.006245 0.240667 0.003452
v -0.003690 0.240661 -0.006505
v -0.006239 0.068111 0.003631
v -0.010541 0.028161 0.006220
v 0.006269 0.240667 -0.003964
v 0.003705 0.068120 0.006173
v 0.006260 0.068113 -0.003769
v 0.003714 0.240673 0.005993
v 0.010160 0.028152 -0.006046
v 0.002326 0.028165 0.003879
v 0.001386 0.000002 0.002339
v 0.007421 -0.000004 -0.004401
v -0.007421 0.000004 0.004401
v -0.002536 0.028153 -0.004333
v -0.001386 -0.000002 -0.002339
vt 0.775401 0.263411
vt 0.682252 0.259530
vt 0.732708 0.302223
vt 0.697777 0.189668
vt 0.821976 0.337154
vt 0.775401 0.368204
vt 0.856907 0.418660
vt 0.802570 0.434185
vt 0.880194 0.507928
vt 0.814214 0.511810
vt 0.872432 0.597197
vt 0.814214 0.589434
vt 0.853026 0.698109
vt 0.798689 0.655415
vt 0.818095 0.224599
vt 0.744352 0.139212
vt 0.872432 0.309986
vt 0.911244 0.403135
vt 0.930650 0.500166
vt 0.930650 0.601078
vt 0.922888 0.717515
vt 0.860788 0.197430
vt 0.802570 0.115924
vt 0.919007 0.290580
vt 0.961700 0.387610
vt 0.977225 0.496285
vt 0.981106 0.604959
vt 0.973344 0.701990
vt 0.779282 0.795139
vt 0.825857 0.717515
vt 0.736589 0.717515
vt 0.868551 0.795139
vt 0.825857 0.868883
vt 0.736589 0.868883
vt 0.693895 0.795139
vt 0.115592 0.426423
vt 0.006918 0.977557
vt 0.115592 0.977557
vt 0.006918 0.426423
vt 0.228148 0.426423
vt 0.228148 0.977557
vt 0.340704 0.426423
vt 0.340704 0.977557
vt 0.453259 0.426423
vt 0.453259 0.977557
vt 0.565815 0.426423
vt 0.569696 0.977557
vt 0.674489 0.426423
vt 0.682252 0.977557
vt 0.115592 0.391492
vt 0.010799 0.387610
vt 0.228148 0.391492
vt 0.340704 0.391492
vt 0.453259 0.391492
vt 0.565815 0.391492
vt 0.670608 0.387610
vt 0.010799 0.993082
vt 0.115592 0.993082
vt 0.228148 0.993082
vt 0.340704 0.993082
vt 0.453259 0.993082
vt 0.569696 0.993082
vt 0.674489 0.993082
vt 0.111711 0.298342
vt 0.010799 0.379848
vt 0.111711 0.379848
vt 0.010799 0.298342
vt 0.228148 0.298342
vt 0.228148 0.379848
vt 0.332941 0.298342
vt 0.332941 0.379848
vt 0.441616 0.298342
vt 0.441616 0.379848
vt 0.554171 0.298342
vt 0.554171 0.379848
vt 0.658964 0.298342
vt 0.658964 0.379848
vt 0.332941 0.240124
vt 0.228148 0.240124
vt 0.332941 0.150855
vt 0.228148 0.150855
vt 0.111711 0.240124
vt 0.111711 0.150855
vt 0.010799 0.240124
vt 0.010799 0.150855
vt 0.441616 0.150855
vt 0.441616 0.240124
vt 0.554171 0.150855
vt 0.554171 0.240124
vt 0.658964 0.150855
vt 0.658964 0.240124
vt 0.895719 0.919339
vt 0.942294 0.989201
vt 0.984988 0.919339
vt 0.942294 0.841714
vt 0.853026 0.841714
vt 0.814214 0.919339
vt 0.853026 0.989201
vt 0.228148 0.112043
vt 0.111711 0.112043
vt 0.010799 0.112043
vt 0.332941 0.112043
vt 0.441616 0.112043
vt 0.554171 0.112043
vt 0.658964 0.112043
vt 0.713302 0.061587
vt 0.006918 0.015012
vt 0.006918 0.057706
vt 0.713302 0.018894
vt 0.880194 0.003369
vt 0.713302 0.104281
vt 0.006918 0.100399
vt 0.880194 0.112043
vt 0.880194 0.061587
vt 0.988869 0.061587
vt 0.988869 0.026656
vt 0.988869 0.096518
vt 0.697777 0.527335
vt 0.798689 0.523453
vt 0.736589 0.341036
vt 0.752114 0.709752
vn -0.004730 0.479049 0.877743
vn 0.495041 0.823298 0.277627
vn 0.011963 0.825465 0.564287
vn 0.764580 0.477401 0.432936
vn -0.763024 0.457869 0.456160
vn -0.486404 0.819117 0.303964
vn -0.781671 0.451216 -0.430494
vn -0.482406 0.828608 -0.283975
vn -0.014039 0.449263 -0.893277
vn -0.006226 0.825404 -0.564501
vn 0.765007 0.457289 -0.453413
vn 0.484420 0.829798 -0.277017
vn 0.005249 -0.161565 0.986816
vn 0.856929 -0.160253 0.489822
vn -0.850642 -0.162084 0.500107
vn -0.863979 -0.175939 -0.471755
vn -0.009125 -0.172643 -0.984924
vn 0.844539 -0.175542 -0.505844
vn 0.002340 -0.608041 0.793902
vn 0.707894 -0.595884 0.379221
vn -0.700832 -0.583840 0.409837
vn -0.706357 -0.587203 -0.395288
vn 0.002258 -0.575453 -0.817832
vn 0.699544 -0.579367 -0.418297
vn 0.004822 0.999969 0.001282
vn 0.012909 -0.120334 0.992645
vn 0.860195 0.171056 0.480361
vn 0.001831 0.168859 0.985626
vn 0.863674 -0.137181 0.484970
vn -0.861354 -0.064943 0.503769
vn -0.852321 0.155065 0.499435
vn -0.872005 -0.072115 -0.484085
vn -0.860836 0.166967 -0.480667
vn -0.006348 -0.088656 -0.996033
vn -0.014740 0.166448 -0.985931
vn 0.855922 -0.099857 -0.507309
vn 0.839595 0.211921 -0.500168
vn -0.015848 -0.253483 0.967210
vn 0.824714 -0.325388 0.462568
vn -0.853792 -0.140105 0.501408
vn -0.867055 -0.145885 -0.476376
vn -0.021239 -0.275721 -0.961003
vn 0.826930 -0.288430 -0.482681
vn 0.826665 0.348922 0.441451
vn -0.009142 0.348673 0.937200
vn -0.817407 0.320201 0.478871
vn -0.824218 0.347264 -0.447294
vn -0.004610 0.350762 -0.936453
vn 0.772920 0.442293 -0.454942
vn 0.017029 -0.237983 0.971099
vn 0.015513 -0.383338 0.923478
vn 0.842311 -0.226691 0.488937
vn -0.827448 -0.253945 0.500809
vn -0.788651 -0.392258 0.473459
vn -0.846065 -0.239113 -0.476363
vn -0.804073 -0.384869 -0.453147
vn -0.014710 -0.230079 -0.973052
vn 0.839259 -0.234077 -0.490738
vn -0.853206 0.180425 -0.489334
vn -0.841456 0.179540 0.509598
vn -0.869991 0.139531 -0.472884
vn -0.845271 0.189611 0.499527
vn 0.023560 0.182012 0.983001
vn -0.000946 0.174322 0.984680
vn 0.857692 0.177618 0.482437
vn 0.853755 0.177221 0.489517
vn -0.022889 0.146062 -0.988983
vn -0.003906 0.180425 -0.983551
vn 0.849788 0.178747 -0.495834
vn 0.850215 0.182562 -0.493728
vn -0.000031 -0.999969 0.000763
vn 0.686361 -0.611011 0.394360
vn 0.030152 -0.622608 0.781915
vn -0.685293 -0.608905 0.399457
vn -0.664357 -0.644948 -0.377697
vn -0.006348 -0.635060 -0.772393
vn 0.684561 -0.608966 -0.400586
vn -0.508286 0.037873 -0.860317
vn -0.860299 0.000557 0.509790
vn -0.509537 -0.000926 -0.860448
vn -0.858272 0.064547 0.509079
vn -0.849269 -0.114811 0.515305
vn 0.860291 -0.000636 -0.509803
vn 0.510117 0.038118 0.859218
vn 0.859340 0.057405 -0.508133
vn 0.509997 0.000851 0.860176
vn 0.863857 -0.105838 -0.492447
vn 0.516282 -0.062044 0.854152
vn 0.386029 -0.664998 0.639302
vn 0.695029 -0.598895 -0.397778
vn -0.693014 -0.596942 0.404157
vn -0.506668 -0.062868 -0.859828
vn -0.385968 -0.670705 -0.633320
usemtl screwdriver.001
s 1
f 1/1/1 2/2/2 3/3/3
f 2/2/2 1/1/1 4/4/4
f 1/1/1 3/3/3 5/5/5
f 5/5/5 3/3/3 6/6/6
f 5/5/5 6/6/6 7/7/7
f 7/7/7 6/6/6 8/8/8
f 7/7/7 8/8/8 9/9/9
f 9/9/9 8/8/8 10/10/10
f 9/9/9 10/10/10 11/11/11
f 11/11/11 10/10/10 12/12/12
f 11/11/11 12/12/12 4/13/4
f 4/13/4 12/12/12 2/14/2
f 4/4/4 1/1/1 13/15/13
f 14/16/14 4/4/4 13/15/13
f 15/17/15 1/1/1 5/5/5
f 13/15/13 1/1/1 15/17/15
f 16/18/16 5/5/5 7/7/7
f 15/17/15 5/5/5 16/18/16
f 17/19/17 7/7/7 9/9/9
f 16/18/16 7/7/7 17/19/17
f 18/20/18 9/9/9 11/11/11
f 17/19/17 9/9/9 18/20/18
f 14/21/14 11/11/11 4/13/4
f 18/20/18 11/11/11 14/21/14
f 19/22/19 14/16/14 13/15/13
f 20/23/20 14/16/14 19/22/19
f 21/24/21 13/15/13 15/17/15
f 19/22/19 13/15/13 21/24/21
f 22/25/22 15/17/15 16/18/16
f 21/24/21 15/17/15 22/25/22
f 23/26/23 16/18/16 17/19/17
f 22/25/22 16/18/16 23/26/23
f 24/27/24 17/19/17 18/20/18
f 23/26/23 17/19/17 24/27/24
f 20/28/20 18/20/18 14/21/14
f 24/27/24 18/20/18 20/28/20
f 25/29/25 3/30/3 2/31/2
f 25/29/25 6/32/6 3/30/3
f 25/29/25 8/33/8 6/32/6
f 25/29/25 10/34/10 8/33/8
f 25/29/25 12/35/12 10/34/10
f 25/29/25 2/31/2 12/35/12
f 26/36/26 27/37/27 28/38/28
f 29/39/29 27/37/27 26/36/26
f 26/36/26 28/38/28 30/40/30
f 30/40/30 28/38/28 31/41/31
f 30/40/30 31/41/31 32/42/32
f 32/42/32 31/41/31 33/43/33
f 32/42/32 33/43/33 34/44/34
f 34/44/34 33/43/33 35/45/35
f 34/44/34 35/45/35 36/46/36
f 36/46/36 35/45/35 37/47/37
f 36/46/36 37/47/37 29/48/29
f 29/48/29 37/47/37 27/49/27
f 38/50/38 29/39/29 26/36/26
f 39/51/39 29/39/29 38/50/38
f 38/50/38 26/36/26 40/52/40
f 40/52/40 26/36/26 30/40/30
f 40/52/40 30/40/30 41/53/41
f 41/53/41 30/40/30 32/42/32
f 41/53/41 32/42/32 42/54/42
f 42/54/42 32/42/32 34/44/34
f 42/54/42 34/44/34 43/55/43
f 43/55/43 34/44/34 36/46/36
f 43/55/43 36/46/36 39/56/39
f 39/56/39 36/46/36 29/48/29
f 44/57/44 28/38/28 27/37/27
f 45/58/45 28/38/28 44/57/44
f 45/58/45 31/41/31 28/38/28
f 46/59/46 31/41/31 45/58/45
f 46/59/46 33/43/33 31/41/31
f 47/60/47 33/43/33 46/59/46
f 47/60/47 35/45/35 33/43/33
f 48/61/48 35/45/35 47/60/47
f 48/61/48 37/47/37 35/45/35
f 49/62/49 37/47/37 48/61/48
f 49/62/49 27/49/27 37/47/37
f 44/63/44 27/49/27 49/62/49
f 50/64/50 39/65/39 51/66/51
f 52/67/52 39/65/39 50/64/50
f 50/64/50 51/66/51 53/68/53
f 53/68/53 51/66/51 40/69/54
f 53/68/53 40/69/54 54/70/55
f 54/70/55 40/69/54 55/71/56
f 54/70/55 55/71/56 56/72/57
f 56/72/57 55/71/56 42/73/42
f 56/72/57 42/73/42 57/74/58
f 57/74/58 42/73/42 43/75/43
f 57/74/58 43/75/43 52/76/52
f 52/76/52 43/75/43 39/77/39
f 58/78/59 53/68/53 54/70/55
f 59/79/60 53/68/53 58/78/59
f 59/79/60 50/64/50 53/68/53
f 60/80/61 59/79/60 58/78/59
f 61/81/62 59/79/60 60/80/61
f 61/81/62 62/82/63 59/79/60
f 63/83/64 62/82/63 61/81/62
f 63/83/64 64/84/65 62/82/63
f 65/85/66 64/84/65 63/83/64
f 60/80/61 58/78/59 66/86/67
f 66/86/67 58/78/59 67/87/68
f 66/86/67 67/87/68 68/88/69
f 68/88/69 67/87/68 69/89/70
f 68/88/69 69/89/70 65/90/66
f 65/90/66 69/89/70 64/91/65
f 62/82/63 50/64/50 59/79/60
f 62/82/63 52/67/52 50/64/50
f 64/84/65 52/67/52 62/82/63
f 69/89/70 57/74/58 64/91/65
f 64/91/65 57/74/58 52/76/52
f 69/89/70 56/72/57 57/74/58
f 67/87/68 56/72/57 69/89/70
f 67/87/68 54/70/55 56/72/57
f 58/78/59 54/70/55 67/87/68
f 70/92/71 71/93/72 72/94/73
f 70/92/71 72/94/73 73/95/74
f 70/92/71 73/95/74 74/96/75
f 70/92/71 74/96/75 75/97/76
f 70/92/71 75/97/76 76/98/77
f 70/92/71 76/98/77 71/93/72
f 73/99/74 63/83/64 61/81/62
f 72/100/73 63/83/64 73/99/74
f 72/100/73 65/85/66 63/83/64
f 71/101/72 65/85/66 72/100/73
f 73/99/74 61/81/62 74/102/75
f 74/102/75 61/81/62 60/80/61
f 74/102/75 60/80/61 75/103/76
f 75/103/76 60/80/61 66/86/67
f 75/103/76 66/86/67 76/104/77
f 76/104/77 66/86/67 68/88/69
f 76/104/77 68/88/69 71/105/72
f 71/105/72 68/88/69 65/90/66
f 77/106/78 78/107/79 79/108/80
f 80/109/81 78/107/79 77/106/78
f 81/110/82 80/109/81 77/106/78
f 82/107/83 83/106/84 84/109/85
f 85/108/86 83/106/84 82/107/83
f 86/110/87 84/109/85 83/106/84
f 84/111/85 79/108/80 82/112/83
f 77/106/78 79/108/80 84/111/85
f 86/113/87 77/106/78 84/111/85
f 80/111/81 85/108/86 78/112/79
f 83/106/84 85/108/86 80/111/81
f 81/113/82 83/106/84 80/111/81
f 87/114/88 83/106/84 81/113/82
f 87/114/88 86/110/87 83/106/84
f 88/115/89 86/110/87 87/114/88
f 89/116/90 86/110/87 88/115/89
f 90/117/91 87/114/88 81/113/82
f 88/115/89 87/114/88 90/117/91
f 91/114/92 77/106/78 86/113/87
f 91/114/92 81/110/82 77/106/78
f 92/115/93 81/110/82 91/114/92
f 90/116/91 81/110/82 92/115/93
f 89/117/90 91/114/92 86/113/87
f 92/115/93 91/114/92 89/117/90
f 88/118/89 92/119/93 89/120/90
f 90/121/91 92/119/93 88/118/89
